<?xml version="1.0" encoding="UTF-8" standalone="no"?>
<!DOCTYPE svg PUBLIC "-//W3C//DTD SVG 1.1//EN"
 "http://www.w3.org/Graphics/SVG/1.1/DTD/svg11.dtd">
<!-- Generated by graphviz version 2.40.1 (20161225.0304)
 -->
<!-- Title: dependencies Pages: 1 -->
<svg width="1136pt" height="284pt"
 viewBox="0.00 0.00 1136.00 284.00" xmlns="http://www.w3.org/2000/svg" xmlns:xlink="http://www.w3.org/1999/xlink">
<g id="graph0" class="graph" transform="scale(1 1) rotate(0) translate(4 280)">
<title>dependencies</title>
<polygon fill="#ffffff" stroke="transparent" points="-4,4 -4,-280 1132,-280 1132,4 -4,4"/>
<text text-anchor="start" x="543.0091" y="-42.4" font-family="sans-serif" font-weight="bold" font-size="14.00" fill="#000000">Legend</text>
<polygon fill="#ffffb3" stroke="transparent" points="330,-10 330,-30 350,-30 350,-10 330,-10"/>
<text text-anchor="start" x="353.629" y="-15.4" font-family="sans-serif" font-size="14.00" fill="#000000"> &#160;Declarations</text>
<polygon fill="#8dd3c7" stroke="transparent" points="443,-10 443,-30 463,-30 463,-10 443,-10"/>
<text text-anchor="start" x="466.7251" y="-15.4" font-family="sans-serif" font-size="14.00" fill="#000000"> &#160;Module</text>
<polygon fill="#80b1d3" stroke="transparent" points="529,-10 529,-30 549,-30 549,-10 529,-10"/>
<text text-anchor="start" x="552.7812" y="-15.4" font-family="sans-serif" font-size="14.00" fill="#000000"> &#160;Bootstrap</text>
<polygon fill="#fdb462" stroke="transparent" points="626,-10 626,-30 646,-30 646,-10 626,-10"/>
<text text-anchor="start" x="649.6732" y="-15.4" font-family="sans-serif" font-size="14.00" fill="#000000"> &#160;Providers</text>
<polygon fill="#fb8072" stroke="transparent" points="722,-10 722,-30 742,-30 742,-10 722,-10"/>
<text text-anchor="start" x="745.7258" y="-15.4" font-family="sans-serif" font-size="14.00" fill="#000000"> &#160;Exports</text>
<g id="clust1" class="cluster">
<title>cluster_AppModule</title>
<polygon fill="none" stroke="#000000" stroke-dasharray="1,5" points="8,-70 8,-268 1120,-268 1120,-70 8,-70"/>
</g>
<g id="clust2" class="cluster">
<title>cluster_AppModule_declarations</title>
<polygon fill="none" stroke="#000000" points="16,-78 16,-130 1112,-130 1112,-78 16,-78"/>
</g>
<g id="clust13" class="cluster">
<title>cluster_AppModule_bootstrap</title>
<polygon fill="none" stroke="#000000" points="537,-208 537,-260 661,-260 661,-208 537,-208"/>
</g>
<!-- AppComponent -->
<g id="node1" class="node">
<title>AppComponent</title>
<polygon fill="#ffffb3" stroke="#000000" points="1103.9399,-122 998.0601,-122 998.0601,-86 1103.9399,-86 1103.9399,-122"/>
<text text-anchor="middle" x="1051" y="-99.8" font-family="Times,serif" font-size="14.00" fill="#000000">AppComponent</text>
</g>
<!-- AppModule -->
<g id="node9" class="node">
<title>AppModule</title>
<polygon fill="#8dd3c7" stroke="#000000" points="640.6571,-187 637.6571,-191 616.6571,-191 613.6571,-187 557.3429,-187 557.3429,-151 640.6571,-151 640.6571,-187"/>
<text text-anchor="middle" x="599" y="-164.8" font-family="Times,serif" font-size="14.00" fill="#000000">AppModule</text>
</g>
<!-- AppComponent&#45;&gt;AppModule -->
<g id="edge1" class="edge">
<title>AppComponent&#45;&gt;AppModule</title>
<path fill="none" stroke="#000000" d="M1051,-122.2921C1051,-144.2057 1051,-178 1051,-178 1051,-178 650.7129,-178 650.7129,-178"/>
<polygon fill="#000000" stroke="#000000" points="650.7129,-174.5001 640.7129,-178 650.7129,-181.5001 650.7129,-174.5001"/>
</g>
<!-- DrivefileComponent -->
<g id="node2" class="node">
<title>DrivefileComponent</title>
<polygon fill="#ffffb3" stroke="#000000" points="979.8613,-122 848.1387,-122 848.1387,-86 979.8613,-86 979.8613,-122"/>
<text text-anchor="middle" x="914" y="-99.8" font-family="Times,serif" font-size="14.00" fill="#000000">DrivefileComponent</text>
</g>
<!-- DrivefileComponent&#45;&gt;AppModule -->
<g id="edge2" class="edge">
<title>DrivefileComponent&#45;&gt;AppModule</title>
<path fill="none" stroke="#000000" d="M914,-122.1061C914,-141.3391 914,-169 914,-169 914,-169 650.8296,-169 650.8296,-169"/>
<polygon fill="#000000" stroke="#000000" points="650.8296,-165.5001 640.8296,-169 650.8295,-172.5001 650.8296,-165.5001"/>
</g>
<!-- FileComponent -->
<g id="node3" class="node">
<title>FileComponent</title>
<polygon fill="#ffffb3" stroke="#000000" points="830.6109,-122 727.3891,-122 727.3891,-86 830.6109,-86 830.6109,-122"/>
<text text-anchor="middle" x="779" y="-99.8" font-family="Times,serif" font-size="14.00" fill="#000000">FileComponent</text>
</g>
<!-- FileComponent&#45;&gt;AppModule -->
<g id="edge3" class="edge">
<title>FileComponent&#45;&gt;AppModule</title>
<path fill="none" stroke="#000000" d="M779,-122.027C779,-138.3976 779,-160 779,-160 779,-160 650.748,-160 650.748,-160"/>
<polygon fill="#000000" stroke="#000000" points="650.7481,-156.5001 640.748,-160 650.748,-163.5001 650.7481,-156.5001"/>
</g>
<!-- FileNamePipe -->
<g id="node4" class="node">
<title>FileNamePipe</title>
<polygon fill="#ffffb3" stroke="#000000" points="709.0926,-122 612.9074,-122 612.9074,-86 709.0926,-86 709.0926,-122"/>
<text text-anchor="middle" x="661" y="-99.8" font-family="Times,serif" font-size="14.00" fill="#000000">FileNamePipe</text>
</g>
<!-- FileNamePipe&#45;&gt;AppModule -->
<g id="edge4" class="edge">
<title>FileNamePipe&#45;&gt;AppModule</title>
<path fill="none" stroke="#000000" d="M626.891,-122.1061C626.891,-122.1061 626.891,-140.991 626.891,-140.991"/>
<polygon fill="#000000" stroke="#000000" points="623.391,-140.9909 626.891,-150.991 630.391,-140.991 623.391,-140.9909"/>
</g>
<!-- HomeComponent -->
<g id="node5" class="node">
<title>HomeComponent</title>
<polygon fill="#ffffb3" stroke="#000000" points="594.5451,-122 479.4549,-122 479.4549,-86 594.5451,-86 594.5451,-122"/>
<text text-anchor="middle" x="537" y="-99.8" font-family="Times,serif" font-size="14.00" fill="#000000">HomeComponent</text>
</g>
<!-- HomeComponent&#45;&gt;AppModule -->
<g id="edge5" class="edge">
<title>HomeComponent&#45;&gt;AppModule</title>
<path fill="none" stroke="#000000" d="M575.972,-122.1061C575.972,-122.1061 575.972,-140.991 575.972,-140.991"/>
<polygon fill="#000000" stroke="#000000" points="572.472,-140.9909 575.972,-150.991 579.472,-140.991 572.472,-140.9909"/>
</g>
<!-- RenameSheetComponent -->
<g id="node6" class="node">
<title>RenameSheetComponent</title>
<polygon fill="#ffffb3" stroke="#000000" points="461.3061,-122 302.6939,-122 302.6939,-86 461.3061,-86 461.3061,-122"/>
<text text-anchor="middle" x="382" y="-99.8" font-family="Times,serif" font-size="14.00" fill="#000000">RenameSheetComponent</text>
</g>
<!-- RenameSheetComponent&#45;&gt;AppModule -->
<g id="edge6" class="edge">
<title>RenameSheetComponent&#45;&gt;AppModule</title>
<path fill="none" stroke="#000000" d="M382,-122.027C382,-138.3976 382,-160 382,-160 382,-160 547.1602,-160 547.1602,-160"/>
<polygon fill="#000000" stroke="#000000" points="547.1603,-163.5001 557.1602,-160 547.1602,-156.5001 547.1603,-163.5001"/>
</g>
<!-- SliderComponent -->
<g id="node7" class="node">
<title>SliderComponent</title>
<polygon fill="#ffffb3" stroke="#000000" points="284.2716,-122 169.7284,-122 169.7284,-86 284.2716,-86 284.2716,-122"/>
<text text-anchor="middle" x="227" y="-99.8" font-family="Times,serif" font-size="14.00" fill="#000000">SliderComponent</text>
</g>
<!-- SliderComponent&#45;&gt;AppModule -->
<g id="edge7" class="edge">
<title>SliderComponent&#45;&gt;AppModule</title>
<path fill="none" stroke="#000000" d="M227,-122.1061C227,-141.3391 227,-169 227,-169 227,-169 547.05,-169 547.05,-169"/>
<polygon fill="#000000" stroke="#000000" points="547.05,-172.5001 557.05,-169 547.05,-165.5001 547.05,-172.5001"/>
</g>
<!-- SliderItemDirective -->
<g id="node8" class="node">
<title>SliderItemDirective</title>
<polygon fill="#ffffb3" stroke="#000000" points="151.6783,-122 24.3217,-122 24.3217,-86 151.6783,-86 151.6783,-122"/>
<text text-anchor="middle" x="88" y="-99.8" font-family="Times,serif" font-size="14.00" fill="#000000">SliderItemDirective</text>
</g>
<!-- SliderItemDirective&#45;&gt;AppModule -->
<g id="edge8" class="edge">
<title>SliderItemDirective&#45;&gt;AppModule</title>
<path fill="none" stroke="#000000" d="M88,-122.2921C88,-144.2057 88,-178 88,-178 88,-178 547.1827,-178 547.1827,-178"/>
<polygon fill="#000000" stroke="#000000" points="547.1828,-181.5001 557.1827,-178 547.1827,-174.5001 547.1828,-181.5001"/>
</g>
<!-- AppComponent  -->
<g id="node10" class="node">
<title>AppComponent </title>
<polygon fill="#80b1d3" stroke="#000000" points="653.439,-252 544.561,-252 544.561,-216 653.439,-216 653.439,-252"/>
<text text-anchor="middle" x="599" y="-229.8" font-family="Times,serif" font-size="14.00" fill="#000000">AppComponent </text>
</g>
<!-- AppModule&#45;&gt;AppComponent  -->
<g id="edge9" class="edge">
<title>AppModule&#45;&gt;AppComponent </title>
<path fill="none" stroke="#000000" stroke-dasharray="1,5" d="M599,-187.1061C599,-187.1061 599,-205.991 599,-205.991"/>
<polygon fill="#000000" stroke="#000000" points="595.5001,-205.9909 599,-215.991 602.5001,-205.991 595.5001,-205.9909"/>
</g>
</g>
</svg>
